<svg width="426" height="391" viewBox="0 0 426 391" fill="none" xmlns="http://www.w3.org/2000/svg">
<mask id="mask0" mask-type="alpha" maskUnits="userSpaceOnUse" x="0" y="0" width="359" height="336">
<rect width="359" height="336" fill="white"/>
</mask>
<g mask="url(#mask0)">
<rect x="-35" y="-47" width="551" height="461" fill="white"/>
</g>
<path d="M227.098 216.637C227.098 205.121 217.757 195.793 206.225 195.793C194.692 195.793 185.351 205.121 185.351 216.637C185.351 228.153 194.692 237.482 206.225 237.482C217.757 237.482 227.098 228.153 227.098 216.637ZM254.93 216.637C254.93 243.503 233.128 265.274 206.225 265.274C179.321 265.274 157.519 243.503 157.519 216.637C157.519 189.772 179.321 168 206.225 168C233.128 168 254.93 189.772 254.93 216.637ZM150.291 358.326L123 352.875L129.776 319.044C131.224 304.135 150.246 293.067 164.477 293.067H247.972C262.203 293.067 281.225 304.135 282.674 319.044L289.449 352.875L262.158 358.326L255.326 324.213C254.943 323.916 254.445 323.573 253.859 323.222C251.509 321.814 248.642 320.86 247.972 320.86H164.477C163.808 320.86 160.941 321.814 158.591 323.222C158.005 323.573 157.507 323.916 157.123 324.213L150.291 358.326ZM296.678 209.487V181.695H408V209.487H296.678ZM296.678 278.969V251.176H408V278.969H296.678ZM338.425 348.451V320.658H408V348.451H338.425Z" fill="#E5E5E5"/>
</svg>