<svg width="228" height="210" viewBox="0 0 228 210" fill="none" xmlns="http://www.w3.org/2000/svg">
<mask id="mask0" mask-type="alpha" maskUnits="userSpaceOnUse" x="-1" y="0" width="194" height="181">
<rect x="-0.000488281" y="0.366211" width="192.141" height="179.831" fill="white"/>
</mask>
<g mask="url(#mask0)">
<rect x="-18.7327" y="-24.7881" width="294.902" height="246.733" fill="white"/>
</g>
<path d="M117.895 187.095L117.9 122.421L124.092 122.443C135.428 116.339 142.1 106.658 142.1 95.814C142.1 78.0232 127.678 63.6009 109.887 63.6009C92.0926 63.6009 77.6737 78.0213 77.6737 95.814C77.6737 106.649 84.3087 116.219 95.6174 122.404L101.825 122.159L101.852 187.567L107.887 195.134L117.895 187.095ZM126.485 191.214L106.546 207.229L93.2629 190.575L93.2378 130.859L92.6523 130.556C78.0833 123.017 69.0835 110.446 69.0835 95.814C69.0835 73.2772 87.3482 55.0107 109.887 55.0107C132.422 55.0107 150.69 73.2789 150.69 95.814C150.69 110.418 141.679 123.119 127.095 130.567L126.49 130.876L126.485 191.214ZM109.885 73.9451C113.848 73.9451 117.061 77.1578 117.061 81.1215C117.061 85.0853 113.848 88.298 109.885 88.298C105.921 88.298 102.708 85.0853 102.708 81.1215C102.708 77.1578 105.921 73.9451 109.885 73.9451ZM168.024 108.561L153.736 106.898L154.729 98.3653L171.985 100.374L224.274 152.663L187.601 189.342L135.11 136.845V130.169H143.7V133.288L187.601 177.193L212.126 152.664L168.024 108.561Z" fill="#E5E5E5"/>
</svg>