<svg width="800" height="800" viewBox="0 0 800 800" fill="none" xmlns="http://www.w3.org/2000/svg">
<rect x="72.5" y="225.5" width="497" height="410" rx="12.5" stroke="black" stroke-width="19"/>
<path d="M567.5 607H594C606.15 607 616 597.15 616 585V200C616 187.85 606.15 178 594 178H122C109.85 178 100 187.85 100 200V228" stroke="black" stroke-width="19"/>
<path d="M618 552H650C662.15 552 672 542.15 672 530V145C672 132.85 662.15 123 650 123H178C165.85 123 156 132.85 156 145V182" stroke="black" stroke-width="19"/>
<circle cx="419" cy="337" r="31" stroke="black" stroke-width="20"/>
<path d="M74 483L252.078 327.146C252.829 326.489 253.949 326.486 254.704 327.139L433.344 481.734C434.16 482.44 435.389 482.371 436.122 481.579L504.991 407.091C505.783 406.233 507.138 406.234 507.93 407.093L571 475.5" stroke="black" stroke-width="19"/>
</svg>
